<svg width="314" height="155" viewBox="0 0 314 155" fill="none" xmlns="http://www.w3.org/2000/svg">
<g filter="url(#filter0_d_24_4)">
<path d="M86.5815 70.8C87.0375 71.256 87.2655 71.844 87.2655 72.564C87.2655 73.164 87.1335 73.776 86.8695 74.4L77.6535 96L77.2575 96.18L68.1855 70.8H71.2455L78.7695 92.112L86.4375 74.4C86.7015 73.8 86.8335 73.176 86.8335 72.528C86.8335 71.88 86.6535 71.376 86.2935 71.016L86.5815 70.8ZM96.5189 96.144C93.9989 96.144 91.9469 95.424 90.3629 93.984C88.7789 92.544 87.9869 90.324 87.9869 87.324C87.9869 84.324 88.8029 81.996 90.4349 80.34C92.0909 78.684 94.1789 77.856 96.6989 77.856C99.2429 77.856 101.307 78.576 102.891 80.016C104.475 81.456 105.267 83.676 105.267 86.676C105.267 89.676 104.439 92.004 102.783 93.66C101.151 95.316 99.0629 96.144 96.5189 96.144ZM96.7709 78.144C94.9469 78.144 93.4349 78.96 92.2349 80.592C91.0349 82.2 90.4349 84.456 90.4349 87.36C90.4349 90.24 90.9869 92.376 92.0909 93.768C93.1949 95.16 94.6589 95.856 96.4829 95.856C98.3069 95.856 99.8189 95.052 101.019 93.444C102.219 91.812 102.819 89.556 102.819 86.676C102.819 83.772 102.267 81.624 101.163 80.232C100.059 78.84 98.5949 78.144 96.7709 78.144ZM116.555 78.144C114.851 78.144 113.423 78.96 112.271 80.592C111.143 82.224 110.579 84.48 110.579 87.36C110.579 90.24 111.095 92.376 112.127 93.768C113.183 95.16 114.563 95.856 116.267 95.856C118.403 95.856 120.299 95.496 121.955 94.776L122.063 95.028C120.359 95.772 118.367 96.144 116.087 96.144C113.807 96.144 111.911 95.424 110.399 93.984C108.887 92.544 108.131 90.324 108.131 87.324C108.131 84.324 108.923 81.996 110.507 80.34C112.091 78.684 114.107 77.856 116.555 77.856C117.923 77.856 119.183 78.168 120.335 78.792C121.511 79.416 122.375 80.364 122.927 81.636H120.623C120.263 80.46 119.711 79.584 118.967 79.008C118.247 78.432 117.443 78.144 116.555 78.144ZM127.56 87.216C127.56 90.192 128.076 92.376 129.108 93.768C130.164 95.16 131.544 95.856 133.248 95.856C135.648 95.856 137.784 95.496 139.656 94.776L139.764 95.028C137.844 95.772 135.672 96.144 133.248 96.144C130.848 96.144 128.892 95.424 127.38 93.984C125.868 92.544 125.112 90.324 125.112 87.324C125.112 84.324 125.904 81.996 127.488 80.34C129.072 78.684 131.088 77.856 133.536 77.856C135.504 77.856 137.16 78.444 138.504 79.62C139.848 80.796 140.52 82.536 140.52 84.84C140.52 84.96 140.52 85.08 140.52 85.2H127.668C127.596 85.848 127.56 86.52 127.56 87.216ZM138.072 84.912C138.048 82.608 137.604 80.904 136.74 79.8C135.876 78.696 134.76 78.144 133.392 78.144C132.024 78.144 130.8 78.744 129.72 79.944C128.664 81.144 127.992 82.8 127.704 84.912H138.072ZM138.108 73.86L137.352 74.58L132.996 69.9L128.82 74.4L128.568 74.22L133.5 69L138.108 73.86ZM164.347 79.26C163.963 78.948 163.339 78.684 162.475 78.468C161.635 78.252 160.999 78.144 160.567 78.144C160.135 78.144 159.883 78.144 159.811 78.144C158.515 78.168 157.579 78.504 157.003 79.152C156.427 79.776 156.139 80.484 156.139 81.276C156.139 82.068 156.391 82.74 156.895 83.292C157.399 83.82 158.023 84.24 158.767 84.552C159.535 84.84 160.351 85.176 161.215 85.56C162.103 85.944 162.919 86.34 163.663 86.748C164.431 87.132 165.067 87.708 165.571 88.476C166.075 89.22 166.327 90.156 166.327 91.284C166.327 92.412 165.931 93.372 165.139 94.164C164.347 94.956 163.459 95.484 162.475 95.748C161.515 96.012 160.471 96.144 159.343 96.144C156.895 96.144 155.059 95.604 153.835 94.524L154.051 94.308C154.531 94.764 155.239 95.136 156.175 95.424C157.135 95.712 158.059 95.856 158.947 95.856C160.363 95.856 161.527 95.472 162.439 94.704C163.375 93.912 163.843 92.94 163.843 91.788C163.843 90.612 163.495 89.676 162.799 88.98C162.103 88.26 161.251 87.708 160.243 87.324C159.259 86.916 158.263 86.52 157.255 86.136C156.247 85.728 155.395 85.176 154.699 84.48C154.003 83.76 153.655 82.932 153.655 81.996C153.655 81.06 153.871 80.304 154.303 79.728C154.735 79.128 155.311 78.708 156.031 78.468C157.255 78.06 158.479 77.856 159.703 77.856C161.767 77.856 163.375 78.24 164.527 79.008L164.347 79.26ZM177.202 96.144C174.682 96.144 172.63 95.424 171.046 93.984C169.462 92.544 168.67 90.324 168.67 87.324C168.67 84.324 169.486 81.996 171.118 80.34C172.774 78.684 174.862 77.856 177.382 77.856C179.926 77.856 181.99 78.576 183.574 80.016C185.158 81.456 185.95 83.676 185.95 86.676C185.95 89.676 185.122 92.004 183.466 93.66C181.834 95.316 179.746 96.144 177.202 96.144ZM177.454 78.144C175.63 78.144 174.118 78.96 172.918 80.592C171.718 82.2 171.118 84.456 171.118 87.36C171.118 90.24 171.67 92.376 172.774 93.768C173.878 95.16 175.342 95.856 177.166 95.856C178.99 95.856 180.502 95.052 181.702 93.444C182.902 91.812 183.502 89.556 183.502 86.676C183.502 83.772 182.95 81.624 181.846 80.232C180.742 78.84 179.278 78.144 177.454 78.144ZM203.052 96C202.068 96 201.312 95.784 200.784 95.352C200.28 94.92 200.016 94.488 199.992 94.056L199.956 93.444V82.14C199.956 80.244 199.464 79.032 198.48 78.504C197.976 78.264 197.352 78.144 196.608 78.144C195.072 78.144 193.692 78.756 192.468 79.98C191.244 81.18 190.632 82.26 190.632 83.22V96H188.112V78H190.632V82.104C191.04 81.072 191.796 80.112 192.9 79.224C194.004 78.312 195.216 77.856 196.536 77.856C197.856 77.856 198.924 77.988 199.74 78.252C200.58 78.492 201.192 78.84 201.576 79.296C202.176 80.04 202.476 81 202.476 82.176V93.444C202.476 94.14 202.608 94.68 202.872 95.064C203.16 95.424 203.448 95.616 203.736 95.64L204.132 95.712H205.248V96H203.052ZM222.181 96C221.197 96 220.441 95.784 219.913 95.352C219.409 94.92 219.145 94.488 219.121 94.056L219.085 93.444V82.14C219.085 80.244 218.581 79.032 217.573 78.504C217.093 78.264 216.481 78.144 215.737 78.144C214.249 78.144 212.905 78.756 211.705 79.98C210.529 81.18 209.941 82.26 209.941 83.22V96H207.421V69.036H209.941V82.104C210.325 81.072 211.057 80.112 212.137 79.224C213.217 78.312 214.429 77.856 215.773 77.856C218.101 77.856 219.649 78.264 220.417 79.08C221.209 79.872 221.605 80.904 221.605 82.176V93.444C221.605 94.14 221.737 94.68 222.001 95.064C222.289 95.424 222.565 95.616 222.829 95.64L223.261 95.712H224.377V96H222.181ZM241.23 96C239.598 96 238.482 95.688 237.882 95.064C237.33 94.536 237.054 94.08 237.054 93.696V92.94C235.878 95.076 233.994 96.144 231.402 96.144C228.378 96.144 226.662 94.776 226.254 92.04C226.206 91.752 226.182 91.464 226.182 91.176C226.182 90.864 226.23 90.528 226.326 90.168C226.422 89.808 226.698 89.412 227.154 88.98C228.066 88.116 230.07 87.588 233.166 87.396C233.934 87.324 234.642 87.288 235.29 87.288C235.938 87.288 236.526 87.312 237.054 87.36V81.384C237.006 81.36 237.006 81.252 237.054 81.06C237.102 80.844 237.054 80.58 236.91 80.268C236.79 79.932 236.622 79.608 236.406 79.296C236.19 78.984 235.806 78.72 235.254 78.504C234.702 78.264 233.982 78.144 233.094 78.144C232.206 78.144 231.162 78.312 229.962 78.648C228.786 78.96 227.922 79.272 227.37 79.584L227.226 79.332C229.362 78.348 231.534 77.856 233.742 77.856C236.214 77.856 237.846 78.3 238.638 79.188C239.262 79.884 239.574 80.616 239.574 81.384V93.444C239.574 94.14 239.706 94.68 239.97 95.064C240.258 95.424 240.546 95.616 240.834 95.64L241.23 95.712H242.346V96H241.23ZM231.978 95.856C233.25 95.856 234.39 95.424 235.398 94.56C236.43 93.672 236.982 92.82 237.054 92.004V87.648C236.406 87.6 235.746 87.576 235.074 87.576C234.426 87.576 233.778 87.612 233.13 87.684C231.306 87.9 230.118 88.308 229.566 88.908C229.014 89.508 228.738 90.336 228.738 91.392C228.738 91.584 228.75 91.8 228.774 92.04C228.99 94.584 230.058 95.856 231.978 95.856ZM244.958 93.084L246.11 93.012L244.49 99.6H244.022L244.958 93.084ZM61.0717 138C59.4397 138 58.3237 137.688 57.7237 137.064C57.1717 136.536 56.8957 136.08 56.8957 135.696V134.94C55.7197 137.076 53.8357 138.144 51.2437 138.144C48.2197 138.144 46.5037 136.776 46.0957 134.04C46.0477 133.752 46.0237 133.464 46.0237 133.176C46.0237 132.864 46.0717 132.528 46.1677 132.168C46.2637 131.808 46.5397 131.412 46.9957 130.98C47.9077 130.116 49.9117 129.588 53.0077 129.396C53.7757 129.324 54.4837 129.288 55.1317 129.288C55.7797 129.288 56.3677 129.312 56.8957 129.36V123.384C56.8477 123.36 56.8477 123.252 56.8957 123.06C56.9437 122.844 56.8957 122.58 56.7517 122.268C56.6317 121.932 56.4637 121.608 56.2477 121.296C56.0317 120.984 55.6477 120.72 55.0957 120.504C54.5437 120.264 53.8237 120.144 52.9357 120.144C52.0477 120.144 51.0037 120.312 49.8037 120.648C48.6277 120.96 47.7637 121.272 47.2117 121.584L47.0677 121.332C49.2037 120.348 51.3757 119.856 53.5837 119.856C56.0557 119.856 57.6877 120.3 58.4797 121.188C59.1037 121.884 59.4157 122.616 59.4157 123.384V135.444C59.4157 136.14 59.5477 136.68 59.8117 137.064C60.0997 137.424 60.3877 137.616 60.6757 137.64L61.0717 137.712H62.1877V138H61.0717ZM51.8197 137.856C53.0917 137.856 54.2317 137.424 55.2397 136.56C56.2717 135.672 56.8237 134.82 56.8957 134.004V129.648C56.2477 129.6 55.5877 129.576 54.9157 129.576C54.2677 129.576 53.6197 129.612 52.9717 129.684C51.1477 129.9 49.9597 130.308 49.4077 130.908C48.8557 131.508 48.5797 132.336 48.5797 133.392C48.5797 133.584 48.5917 133.8 48.6157 134.04C48.8317 136.584 49.8997 137.856 51.8197 137.856ZM75.4495 129.648C75.4495 126.528 76.2055 124.116 77.7175 122.412C79.2295 120.708 81.4975 119.856 84.5215 119.856C86.7535 119.856 89.0215 120.252 91.3255 121.044V138.432C91.3015 144.144 88.8055 147 83.8375 147C81.1015 147 78.7615 146.112 76.8175 144.336L77.0695 144.12C79.1335 145.848 81.3895 146.712 83.8375 146.712C87.1495 146.712 88.8055 143.952 88.8055 138.432V134.868C88.3495 135.708 87.5935 136.452 86.5375 137.1C85.4815 137.748 84.2335 138.072 82.7935 138.072C77.8975 137.952 75.4495 135.144 75.4495 129.648ZM82.8295 137.784C84.4375 137.784 85.8175 137.352 86.9695 136.488C88.1215 135.624 88.7335 134.772 88.8055 133.932V121.224C87.0775 120.504 85.6135 120.144 84.4135 120.144C82.2775 120.144 80.6695 120.984 79.5895 122.664C78.5095 124.32 77.9695 126.648 77.9695 129.648C77.9695 135.072 79.5895 137.784 82.8295 137.784ZM96.4642 129.216C96.4642 132.192 96.9802 134.376 98.0122 135.768C99.0682 137.16 100.448 137.856 102.152 137.856C104.552 137.856 106.688 137.496 108.56 136.776L108.668 137.028C106.748 137.772 104.576 138.144 102.152 138.144C99.7522 138.144 97.7962 137.424 96.2842 135.984C94.7722 134.544 94.0162 132.324 94.0162 129.324C94.0162 126.324 94.8082 123.996 96.3922 122.34C97.9762 120.684 99.9922 119.856 102.44 119.856C104.408 119.856 106.064 120.444 107.408 121.62C108.752 122.796 109.424 124.536 109.424 126.84C109.424 126.96 109.424 127.08 109.424 127.2H96.5722C96.5002 127.848 96.4642 128.52 96.4642 129.216ZM106.976 126.912C106.952 124.608 106.508 122.904 105.644 121.8C104.78 120.696 103.664 120.144 102.296 120.144C100.928 120.144 99.7042 120.744 98.6242 121.944C97.5682 123.144 96.8962 124.8 96.6082 126.912H106.976ZM125.831 138C124.847 138 124.091 137.784 123.563 137.352C123.059 136.92 122.795 136.488 122.771 136.056L122.735 135.444V124.14C122.735 122.244 122.243 121.032 121.259 120.504C120.755 120.264 120.131 120.144 119.387 120.144C117.851 120.144 116.471 120.756 115.247 121.98C114.023 123.18 113.411 124.26 113.411 125.22V138H110.891V120H113.411V124.104C113.819 123.072 114.575 122.112 115.679 121.224C116.783 120.312 117.995 119.856 119.315 119.856C120.635 119.856 121.703 119.988 122.519 120.252C123.359 120.492 123.971 120.84 124.355 121.296C124.955 122.04 125.255 123 125.255 124.176V135.444C125.255 136.14 125.387 136.68 125.651 137.064C125.939 137.424 126.227 137.616 126.515 137.64L126.911 137.712H128.027V138H125.831ZM129.66 120.288V120H130.416V116.4H132.936V120H138.444V120.288H132.936V133.392C132.936 134.952 133.104 136.08 133.44 136.776C133.8 137.472 134.532 137.82 135.636 137.82C136.764 137.82 137.904 137.592 139.056 137.136L139.164 137.424C137.964 137.88 136.584 138.108 135.024 138.108C133.488 138.108 132.336 137.796 131.568 137.172C130.8 136.524 130.416 135.252 130.416 133.356V120.288H129.66ZM143.222 129.216C143.222 132.192 143.738 134.376 144.77 135.768C145.826 137.16 147.206 137.856 148.91 137.856C151.31 137.856 153.446 137.496 155.318 136.776L155.426 137.028C153.506 137.772 151.334 138.144 148.91 138.144C146.51 138.144 144.554 137.424 143.042 135.984C141.53 134.544 140.774 132.324 140.774 129.324C140.774 126.324 141.566 123.996 143.15 122.34C144.734 120.684 146.75 119.856 149.198 119.856C151.166 119.856 152.822 120.444 154.166 121.62C155.51 122.796 156.182 124.536 156.182 126.84C156.182 126.96 156.182 127.08 156.182 127.2H143.33C143.258 127.848 143.222 128.52 143.222 129.216ZM153.734 126.912C153.71 124.608 153.266 122.904 152.402 121.8C151.538 120.696 150.422 120.144 149.054 120.144C147.686 120.144 146.462 120.744 145.382 121.944C144.326 123.144 143.654 124.8 143.366 126.912H153.734ZM176.373 121.548V120.792C175.293 121.224 174.309 122.1 173.421 123.42C172.533 124.716 172.065 125.94 172.017 127.092V138H169.497V120H172.017V125.724C172.401 124.332 173.133 123.024 174.213 121.8C175.293 120.552 176.517 119.904 177.885 119.856H178.029C178.509 119.856 178.905 120.024 179.217 120.36C179.553 120.672 179.721 121.068 179.721 121.548C179.721 122.028 179.553 122.424 179.217 122.736C178.905 123.048 178.509 123.204 178.029 123.204C177.549 123.204 177.153 123.048 176.841 122.736C176.529 122.424 176.373 122.028 176.373 121.548ZM183.792 129.216C183.792 132.192 184.308 134.376 185.34 135.768C186.396 137.16 187.776 137.856 189.48 137.856C191.88 137.856 194.016 137.496 195.888 136.776L195.996 137.028C194.076 137.772 191.904 138.144 189.48 138.144C187.08 138.144 185.124 137.424 183.612 135.984C182.1 134.544 181.344 132.324 181.344 129.324C181.344 126.324 182.136 123.996 183.72 122.34C185.304 120.684 187.32 119.856 189.768 119.856C191.736 119.856 193.392 120.444 194.736 121.62C196.08 122.796 196.752 124.536 196.752 126.84C196.752 126.96 196.752 127.08 196.752 127.2H183.9C183.828 127.848 183.792 128.52 183.792 129.216ZM194.304 126.912C194.28 124.608 193.836 122.904 192.972 121.8C192.108 120.696 190.992 120.144 189.624 120.144C188.256 120.144 187.032 120.744 185.952 121.944C184.896 123.144 184.224 124.8 183.936 126.912H194.304ZM201.315 118.308V120H204.159V120.288H201.315V138H198.795V120.288H198.039V120H198.795V118.308C198.795 115.692 199.359 113.832 200.487 112.728C201.615 111.6 203.439 111.024 205.959 111V111.288C204.303 111.312 203.115 111.876 202.395 112.98C201.675 114.06 201.315 115.836 201.315 118.308ZM211.616 138C209.504 138 208.172 137.448 207.62 136.344C207.5 136.104 207.44 135.888 207.44 135.696V111.036H209.96V135.444C209.96 136.14 210.092 136.68 210.356 137.064C210.644 137.424 210.932 137.616 211.22 137.64L211.616 137.712H212.732V138H211.616ZM216.101 129.216C216.101 132.192 216.617 134.376 217.649 135.768C218.705 137.16 220.085 137.856 221.789 137.856C224.189 137.856 226.325 137.496 228.197 136.776L228.305 137.028C226.385 137.772 224.213 138.144 221.789 138.144C219.389 138.144 217.433 137.424 215.921 135.984C214.409 134.544 213.653 132.324 213.653 129.324C213.653 126.324 214.445 123.996 216.029 122.34C217.613 120.684 219.629 119.856 222.077 119.856C224.045 119.856 225.701 120.444 227.045 121.62C228.389 122.796 229.061 124.536 229.061 126.84C229.061 126.96 229.061 127.08 229.061 127.2H216.209C216.137 127.848 216.101 128.52 216.101 129.216ZM226.613 126.912C226.589 124.608 226.145 122.904 225.281 121.8C224.417 120.696 223.301 120.144 221.933 120.144C220.565 120.144 219.341 120.744 218.261 121.944C217.205 123.144 216.533 124.8 216.245 126.912H226.613ZM231.438 120.288V120H232.194V116.4H234.714V120H240.222V120.288H234.714V133.392C234.714 134.952 234.882 136.08 235.218 136.776C235.578 137.472 236.31 137.82 237.414 137.82C238.542 137.82 239.682 137.592 240.834 137.136L240.942 137.424C239.742 137.88 238.362 138.108 236.802 138.108C235.266 138.108 234.114 137.796 233.346 137.172C232.578 136.524 232.194 135.252 232.194 133.356V120.288H231.438ZM244.999 129.216C244.999 132.192 245.515 134.376 246.547 135.768C247.603 137.16 248.983 137.856 250.687 137.856C253.087 137.856 255.223 137.496 257.095 136.776L257.203 137.028C255.283 137.772 253.111 138.144 250.687 138.144C248.287 138.144 246.331 137.424 244.819 135.984C243.307 134.544 242.551 132.324 242.551 129.324C242.551 126.324 243.343 123.996 244.927 122.34C246.511 120.684 248.527 119.856 250.975 119.856C252.943 119.856 254.599 120.444 255.943 121.62C257.287 122.796 257.959 124.536 257.959 126.84C257.959 126.96 257.959 127.08 257.959 127.2H245.107C245.035 127.848 244.999 128.52 244.999 129.216ZM255.511 126.912C255.487 124.608 255.043 122.904 254.179 121.8C253.315 120.696 252.199 120.144 250.831 120.144C249.463 120.144 248.239 120.744 247.159 121.944C246.103 123.144 245.431 124.8 245.143 126.912H255.511ZM262.928 111H265.448L264.728 129.9H263.648L262.928 111ZM263.144 136.128C262.856 135.816 262.712 135.444 262.712 135.012C262.712 134.58 262.856 134.22 263.144 133.932C263.432 133.644 263.792 133.5 264.224 133.5C264.656 133.5 265.016 133.644 265.304 133.932C265.616 134.22 265.772 134.58 265.772 135.012C265.772 135.444 265.616 135.816 265.304 136.128C265.016 136.416 264.656 136.56 264.224 136.56C263.792 136.56 263.432 136.416 263.144 136.128Z" fill="white"/>
</g>
<path d="M34.624 14.2C35.4347 15.0107 35.84 16.056 35.84 17.336C35.84 18.4027 35.6053 19.4907 35.136 20.6L18.752 59L18.048 59.32L1.92 14.2H7.36L20.736 52.088L34.368 20.6C34.8373 19.5333 35.072 18.424 35.072 17.272C35.072 16.12 34.752 15.224 34.112 14.584L34.624 14.2ZM46.838 59C45.0887 59 43.7447 58.616 42.806 57.848C41.91 57.08 41.4407 56.312 41.398 55.544L41.334 54.456V27H45.814V54.456C45.814 55.6933 46.0487 56.6533 46.518 57.336C47.03 57.976 47.5207 58.3173 47.99 58.36L48.758 58.488H50.742V59H46.838ZM41.718 19.832C41.206 19.32 40.95 18.68 40.95 17.912C40.95 17.144 41.206 16.504 41.718 15.992C42.23 15.4373 42.87 15.16 43.638 15.16C44.406 15.16 45.046 15.4373 45.558 15.992C46.1127 16.504 46.39 17.144 46.39 17.912C46.39 18.68 46.1127 19.32 45.558 19.832C45.046 20.344 44.406 20.6 43.638 20.6C42.87 20.6 42.23 20.344 41.718 19.832ZM54.6225 44.152C54.6225 38.6053 55.9665 34.3173 58.6545 31.288C61.3425 28.2587 65.3745 26.744 70.7505 26.744C73.2678 26.744 75.8065 27.384 78.3665 28.664V11.064H82.8465V54.456C82.8465 55.6933 83.0812 56.6533 83.5505 57.336C84.0625 57.976 84.5745 58.3173 85.0865 58.36L85.7905 58.488H87.7745V59H83.8705C82.1212 59 80.7772 58.616 79.8385 57.848C78.9425 57.08 78.4732 56.312 78.4305 55.544L78.3665 54.456V53.432C77.5558 54.9253 76.2118 56.248 74.3345 57.4C72.4572 58.552 70.2385 59.128 67.6785 59.128C58.9745 58.9147 54.6225 53.9227 54.6225 44.152ZM67.7425 58.616C70.6012 58.616 73.0545 57.848 75.1025 56.312C77.1505 54.776 78.2385 53.2613 78.3665 51.768V29.24C75.3372 27.9173 72.7345 27.256 70.5585 27.256C66.7612 27.256 63.9025 28.7493 61.9825 31.736C60.0625 34.68 59.1025 38.8187 59.1025 44.152C59.1025 53.7947 61.9825 58.616 67.7425 58.616ZM103.847 29.752V28.408C101.927 29.176 100.177 30.7333 98.5985 33.08C97.0198 35.384 96.1878 37.56 96.1025 39.608V59H91.6225V27H96.1025V37.176C96.7852 34.7013 98.0865 32.376 100.007 30.2C101.927 27.9813 104.103 26.8293 106.535 26.744H106.791C107.644 26.744 108.348 27.0427 108.903 27.64C109.5 28.1947 109.799 28.8987 109.799 29.752C109.799 30.6053 109.5 31.3093 108.903 31.864C108.348 32.4187 107.644 32.696 106.791 32.696C105.937 32.696 105.233 32.4187 104.679 31.864C104.124 31.3093 103.847 30.6053 103.847 29.752ZM127.228 59.256C122.748 59.256 119.1 57.976 116.284 55.416C113.468 52.856 112.06 48.9093 112.06 43.576C112.06 38.2427 113.511 34.104 116.412 31.16C119.356 28.216 123.068 26.744 127.548 26.744C132.071 26.744 135.74 28.024 138.556 30.584C141.372 33.144 142.78 37.0907 142.78 42.424C142.78 47.7573 141.308 51.896 138.364 54.84C135.463 57.784 131.751 59.256 127.228 59.256ZM127.676 27.256C124.433 27.256 121.745 28.7067 119.612 31.608C117.479 34.4667 116.412 38.4773 116.412 43.64C116.412 48.76 117.393 52.5573 119.356 55.032C121.319 57.5067 123.921 58.744 127.164 58.744C130.407 58.744 133.095 57.3147 135.228 54.456C137.361 51.5547 138.428 47.544 138.428 42.424C138.428 37.2613 137.447 33.4427 135.484 30.968C133.521 28.4933 130.919 27.256 127.676 27.256ZM168.918 14.712C173.867 14.3707 178.219 14.2 181.974 14.2C192.555 14.2 197.846 17.9333 197.846 25.4C197.846 28.856 196.95 31.8853 195.158 34.488C194.219 35.896 192.768 37.0267 190.806 37.88C188.843 38.6907 186.475 39.096 183.702 39.096H174.23V59H168.918V14.712ZM182.038 14.84C179.563 14.84 176.96 14.9893 174.23 15.288V38.456H183.702C189.718 38.2 192.726 33.8907 192.726 25.528C192.726 22.1147 191.83 19.4907 190.038 17.656C188.246 15.7787 185.579 14.84 182.038 14.84ZM211.126 59C207.371 59 205.003 58.0187 204.022 56.056C203.808 55.6293 203.702 55.2453 203.702 54.904V11.064H208.182V54.456C208.182 55.6933 208.416 56.6533 208.885 57.336C209.398 57.976 209.91 58.3173 210.422 58.36L211.126 58.488H213.11V59H211.126ZM243.117 59C240.216 59 238.232 58.4453 237.165 57.336C236.184 56.3973 235.693 55.5867 235.693 54.904V53.56C233.602 57.3573 230.253 59.256 225.645 59.256C220.269 59.256 217.218 56.824 216.493 51.96C216.408 51.448 216.365 50.936 216.365 50.424C216.365 49.8693 216.45 49.272 216.621 48.632C216.792 47.992 217.282 47.288 218.093 46.52C219.714 44.984 223.277 44.0453 228.781 43.704C230.146 43.576 231.405 43.512 232.557 43.512C233.709 43.512 234.754 43.5547 235.693 43.64V33.016C235.608 32.9733 235.608 32.7813 235.693 32.44C235.778 32.056 235.693 31.5867 235.437 31.032C235.224 30.4347 234.925 29.8587 234.541 29.304C234.157 28.7493 233.474 28.28 232.493 27.896C231.512 27.4693 230.232 27.256 228.653 27.256C227.074 27.256 225.218 27.5547 223.085 28.152C220.994 28.7067 219.458 29.2613 218.477 29.816L218.221 29.368C222.018 27.6187 225.88 26.744 229.805 26.744C234.2 26.744 237.101 27.5333 238.509 29.112C239.618 30.3493 240.173 31.6507 240.173 33.016V54.456C240.173 55.6933 240.408 56.6533 240.877 57.336C241.389 57.976 241.901 58.3173 242.413 58.36L243.117 58.488H245.101V59H243.117ZM226.669 58.744C228.93 58.744 230.957 57.976 232.749 56.44C234.584 54.8613 235.565 53.3467 235.693 51.896V44.152C234.541 44.0667 233.368 44.024 232.173 44.024C231.021 44.024 229.869 44.088 228.717 44.216C225.474 44.6 223.362 45.3253 222.381 46.392C221.4 47.4587 220.909 48.9307 220.909 50.808C220.909 51.1493 220.93 51.5333 220.973 51.96C221.357 56.4827 223.256 58.744 226.669 58.744ZM275.183 59C273.433 59 272.089 58.616 271.151 57.848C270.255 57.08 269.785 56.312 269.743 55.544L269.679 54.456V34.36C269.679 30.9893 268.804 28.8347 267.055 27.896C266.159 27.4693 265.049 27.256 263.727 27.256C260.996 27.256 258.543 28.344 256.367 30.52C254.191 32.6533 253.103 34.5733 253.103 36.28V59H248.623V27H253.103V34.296C253.828 32.4613 255.172 30.7547 257.135 29.176C259.097 27.5547 261.252 26.744 263.599 26.744C265.945 26.744 267.844 26.9787 269.295 27.448C270.788 27.8747 271.876 28.4933 272.559 29.304C273.625 30.6267 274.159 32.3333 274.159 34.424V54.456C274.159 55.6933 274.393 56.6533 274.863 57.336C275.375 57.976 275.887 58.3173 276.399 58.36L277.103 58.488H279.087V59H275.183ZM294.916 59.256C290.436 59.256 286.788 57.976 283.972 55.416C281.156 52.856 279.748 48.9093 279.748 43.576C279.748 38.2427 281.198 34.104 284.1 31.16C287.044 28.216 290.756 26.744 295.236 26.744C299.758 26.744 303.428 28.024 306.244 30.584C309.06 33.144 310.468 37.0907 310.468 42.424C310.468 47.7573 308.996 51.896 306.052 54.84C303.15 57.784 299.438 59.256 294.916 59.256ZM295.364 27.256C292.121 27.256 289.433 28.7067 287.3 31.608C285.166 34.4667 284.1 38.4773 284.1 43.64C284.1 48.76 285.081 52.5573 287.044 55.032C289.006 57.5067 291.609 58.744 294.852 58.744C298.094 58.744 300.782 57.3147 302.916 54.456C305.049 51.5547 306.116 47.544 306.116 42.424C306.116 37.2613 305.134 33.4427 303.172 30.968C301.209 28.4933 298.606 27.256 295.364 27.256Z" fill="white"/>
<defs>
<filter id="filter0_d_24_4" x="42.0237" y="69" width="227.748" height="86" filterUnits="userSpaceOnUse" color-interpolation-filters="sRGB">
<feFlood flood-opacity="0" result="BackgroundImageFix"/>
<feColorMatrix in="SourceAlpha" type="matrix" values="0 0 0 0 0 0 0 0 0 0 0 0 0 0 0 0 0 0 127 0" result="hardAlpha"/>
<feOffset dy="4"/>
<feGaussianBlur stdDeviation="2"/>
<feComposite in2="hardAlpha" operator="out"/>
<feColorMatrix type="matrix" values="0 0 0 0 0 0 0 0 0 0 0 0 0 0 0 0 0 0 1 0"/>
<feBlend mode="normal" in2="BackgroundImageFix" result="effect1_dropShadow_24_4"/>
<feBlend mode="normal" in="SourceGraphic" in2="effect1_dropShadow_24_4" result="shape"/>
</filter>
</defs>
</svg>
